<svg width="367" height="366" viewBox="0 0 367 366" fill="none" xmlns="http://www.w3.org/2000/svg">
<path d="M607.042 189.848C549.286 178.278 492.383 157.11 441.838 123.135C428.78 114.356 415.81 98.8825 391.22 92.6831C369.937 89.6233 348.068 90.579 326.97 95.6284C307.135 100.452 283.033 107.101 267.764 117.507C248.406 130.849 224.626 158.397 219.223 183.407C206.19 161.287 192.412 131.398 164.007 144.049C171.629 140.683 184.999 115.034 188.28 107.349C193.259 95.4702 199.328 84.4198 206.242 73.9407C219.963 53.1817 236.794 35.4576 255.035 20.1289C285.62 -5.36477 311.456 -20.3848 347.488 -34.2365C360.278 -39.2067 374.263 -43.548 388.767 -46.2172C388.72 -46.3692 388.72 -46.3691 388.825 -46.5684C448.703 -57.156 530.655 -51.9305 564.961 -11.7483C588.997 16.289 598.497 29.173 626.747 53.0689C677.114 95.5983 707.23 102.416 757.223 112.063L755.541 202.748C706.288 203.538 657.176 199.951 607.042 189.848Z" fill="#EC1C2D"/>
<path d="M218.553 191.448C214.585 200.679 206.718 208.621 200.805 216.956C191.104 230.801 183.478 246.501 170.751 258.118C166.956 261.463 163.313 264.76 159.272 267.848C152.521 272.944 144.784 277.012 138.279 282.364C135.103 285.017 128.263 296.806 124.143 296.419C119.367 296.068 115.016 292.252 113.857 287.445C110.732 273.083 130.871 263.331 129.853 249.315C129.176 240.692 126.822 230.423 118.335 229.391C94.631 226.583 64.6974 269.207 94.4093 278.483C99.0118 279.888 106.282 281.297 106.346 287.944C106.32 291.619 101.377 294.486 97.7286 295.619C93.7291 296.694 85.9239 296.783 82.1391 294.792C70.4334 288.759 59.3564 276.698 58.6425 262.587C58.238 250.546 64.9522 239.962 73.4749 231.984C78.402 227.454 81.5785 224.802 88.2721 220.057C93.4823 216.44 98.2155 213.971 103.767 210.914C94.7344 207.051 83.0136 209.023 73.3212 207.865C60.8663 206.399 47.4997 210.048 35.3333 211.658C30.841 212.219 22.7004 213.913 19.8904 208.619C17.1275 203.477 24.057 199.492 27.527 197.249C33.6021 193.196 41.098 191.036 48.4104 190.433C53.3011 190.081 56.1317 189.536 62.5896 188.864C69.7029 188.156 78.3625 188.135 85.8061 188.49C90.2303 188.784 94.6545 189.077 99.1731 189.674C101.784 190.03 109.19 189.731 111.067 191.482C102.517 183.803 93.7526 184.024 83.2738 181.943C77.408 180.764 71.4006 179.129 65.5925 177.599C59.0347 175.802 52.1153 174.45 45.8248 171.903C42.5799 170.577 35.6079 166.908 35.3403 162.824C34.3696 148.96 89.3061 165.405 94.6319 165.918C98.2489 166.295 102.217 166.73 105.871 167.762C92.0942 157.206 86.071 153.909 73.998 141.324C71.2877 138.499 62.2816 130.962 63.8276 126.816C66.2699 120.724 75.365 126.401 77.9914 128.419C96.3653 143.047 128.452 156.753 151.715 146.865C158.776 143.84 165.658 139.703 173.285 138.502C185.661 136.494 198.326 142.395 207.406 151.243C214.362 158.083 219.615 166.952 220.774 176.592C221.362 182.243 220.356 187.055 218.553 191.448Z" fill="#EEB48E"/>
</svg>
