<svg width="968" height="397" viewBox="0 0 968 397" fill="none" xmlns="http://www.w3.org/2000/svg">
<path d="M92.9365 -1278.04C-16.2188 -1157.56 -211.792 -819.526 -228.927 -602.953C-263.583 -160.98 197.962 210.328 197.962 210.328L249.505 193.117C-130.726 -268.423 224.867 -932.286 344.381 -1147.12L92.9365 -1278.04Z" fill="#EC1C2D"/>
<path d="M251.033 189.549C266.476 191.161 282.069 196.34 293.9 206.592C300.66 212.402 304.866 219.726 310.431 226.718C312.794 229.447 305.939 240.957 304.243 240.608C292.205 237.317 290.023 232.72 280.041 226.044C272.259 220.568 262.598 217.289 253.74 222.675C244.881 228.061 241.591 239.759 245.272 249.967C247.612 256.772 252.847 262.064 259.281 265.495C265.377 268.584 272.143 273.375 279.449 272.566C289.303 271.601 295.806 262.127 304.157 256.569C307.224 254.548 310.798 253.039 314.363 253.228C318.096 253.588 321.648 256.154 322.139 259.723C322.629 263.291 320.233 266.674 317.841 269.378C311.349 276.814 304.01 283.736 295.997 289.636C289.519 294.355 282.024 298.729 273.887 296.308C268.971 294.753 264.228 292.69 259.312 291.135C249.313 287.515 239.974 287.634 240.921 300.884C241.712 311.586 250.321 320.971 257.243 328.31C265.516 337.015 273.622 345.209 283.606 351.546C284.283 351.889 285.129 352.403 285.465 353.084C285.968 354.275 285.452 355.461 284.937 356.647C277.227 369.34 260.835 354.819 253.566 348.836C244.946 341.488 237.183 332.616 232.144 322.401C229.455 317.292 227.447 311.848 225.949 306.236C224.616 301.475 225.16 295.195 223.146 290.769C218.673 301.612 220.637 315.207 223.803 326.261C224.969 330.513 238.418 355.376 225.18 354.286C222.973 354.104 220.943 352.735 219.083 351.196C211.647 344.704 207.297 332.794 205.821 323.107C203.685 310.021 202.404 295.751 203.663 282.683C189.85 293.645 192.944 317.944 181.844 329.6C177.582 332.803 176.433 325.495 175.77 322.435C175.108 319.375 175.636 315.812 176.163 312.589C179.146 294.776 184.341 276.126 182.91 258.289C181.636 242.661 180.362 227.032 189.607 213.159C202.959 193.194 229.139 187.563 251.033 189.549Z" fill="#EEB48E"/>
</svg>
