<svg width="20" height="41" viewBox="0 0 20 41" fill="none" xmlns="http://www.w3.org/2000/svg">
<path fill-rule="evenodd" clip-rule="evenodd" d="M4.46964 20.893V40.4468C4.46964 40.7365 4.71131 40.9779 5.00133 40.9779H12.2517C12.5417 40.9779 12.7834 40.7365 12.7834 40.4468V20.5551H18.052C18.2937 20.5551 18.5354 20.3619 18.5837 20.0723L19.0671 14.0854C19.1154 13.7957 18.8737 13.5543 18.5354 13.5543H12.7351V9.30562C12.7351 8.29172 13.5568 7.51922 14.5235 7.51922H18.5837C18.8737 7.51922 19.1154 7.27782 19.1154 6.98814V1.0013C19.1154 0.711619 18.8737 0.470215 18.5837 0.470215H11.7684C7.75648 0.470215 4.46964 3.75332 4.46964 7.76063V13.5543H0.84444C0.554425 13.5543 0.312744 13.7957 0.312744 14.0854V20.0723C0.312744 20.3619 0.554425 20.6033 0.84444 20.6033H4.46964V20.893Z" fill="#E6007E"/>
</svg>
