<svg width="68" height="69" viewBox="0 0 68 69" fill="none" xmlns="http://www.w3.org/2000/svg">
<path d="M33.6012 68.7366C15.0767 68.7366 0.034668 53.4701 0.034668 34.6691C0.034668 15.8681 15.0767 0.601562 33.6012 0.601562C52.1257 0.601562 67.1678 15.8681 67.1678 34.6691C67.1678 53.4701 52.1257 68.7366 33.6012 68.7366ZM44.9191 20.8261C43.5648 20.8261 42.4523 21.9551 42.4523 23.3296C42.4523 24.7041 43.5648 25.8331 44.9191 25.8331C46.2733 25.8331 47.3858 24.7041 47.3858 23.3296C47.3858 21.9551 46.2733 20.8261 44.9191 20.8261ZM33.8431 24.0659C28.0874 24.0659 23.3958 28.8275 23.3958 34.6691C23.3958 40.5106 28.0874 45.2723 33.8431 45.2723C39.5987 45.2723 44.2903 40.5106 44.2903 34.6691C44.2903 28.8275 39.5987 24.0659 33.8431 24.0659ZM33.8431 41.4433C30.1672 41.4433 27.1684 38.3998 27.1684 34.6691C27.1684 30.9384 30.1672 27.8949 33.8431 27.8949C37.5189 27.8949 40.5177 30.9384 40.5177 34.6691C40.5177 38.3998 37.5673 41.4433 33.8431 41.4433ZM54.931 25.8331C54.931 18.7153 49.2237 12.9228 42.2105 12.9228H25.4272C18.4141 12.9228 12.7068 18.7153 12.7068 25.8331V42.916C12.7068 50.0339 18.4141 55.8263 25.4272 55.8263H42.2105C49.2237 55.8263 54.931 50.0339 54.931 42.916V25.8331ZM50.9165 42.916C50.9165 47.8249 46.9988 51.801 42.1621 51.801H25.3789C20.5422 51.801 16.6245 47.8249 16.6245 42.916V25.8331C16.6245 20.9243 20.5422 16.9481 25.3789 16.9481H42.1621C46.9988 16.9481 50.9165 20.9243 50.9165 25.8331V42.916Z" fill="#E6007E"/>
</svg>
