<svg width="39" height="44" viewBox="0 0 39 44" fill="none" xmlns="http://www.w3.org/2000/svg">
<path d="M38.9996 10.4737C33.3443 10.4737 28.7524 5.88702 28.7524 0.238159H21.067V29.8826C21.067 33.3106 18.2635 36.1109 14.8316 36.1109C11.3998 36.1109 8.59631 33.3106 8.59631 29.8826C8.59631 26.4547 11.3998 23.6544 14.8316 23.6544C15.46 23.6544 16.2334 23.7509 16.8134 23.9441V16.1226C16.1851 16.026 15.5083 15.9777 14.8316 15.9777C7.14623 15.9777 0.910889 22.206 0.910889 29.8826C0.910889 37.5593 7.14623 43.7875 14.8316 43.7875C22.5171 43.7875 28.7524 37.5593 28.7524 29.8826V14.1913C31.5559 16.4605 35.0844 17.8124 38.9996 17.8124V10.4737Z" fill="#E6007E"/>
<path d="M36.8245 10.2319C34.3594 9.70079 32.2326 8.25236 30.7825 6.32112C28.8007 4.8727 27.399 2.74834 26.8673 0.286011H21.1153V29.9305C21.1153 33.3584 18.3118 36.1587 14.88 36.1587C12.6082 36.1587 10.5781 34.9517 9.5147 33.117C7.67793 32.0066 6.46952 30.027 6.46952 27.7578C6.46952 24.3299 9.27302 21.5296 12.7049 21.5296C13.3332 21.5296 14.1066 21.6262 14.6866 21.8193V15.9773C7.09789 16.0739 0.959229 22.2538 0.959229 29.8822C0.959229 33.1653 2.1193 36.207 4.0044 38.5728C6.37286 40.4557 9.41803 41.6145 12.7049 41.6145C20.3903 41.6145 26.6256 35.3862 26.6256 27.7096V12.0183C29.4291 14.2875 32.9576 15.6393 36.8728 15.6393V10.2319H36.8245Z" fill="#E6007E"/>
</svg>
